<?xml version="1.0" encoding="UTF-8"?>
<svg xmlns="http://www.w3.org/2000/svg" xmlns:xlink="http://www.w3.org/1999/xlink" width="647.2pt" height="164.4pt" viewBox="0 0 647.2 164.4" version="1.1">
<defs>
<clipPath id="clip1">
  <path d="M 538 73 L 647.199219 73 L 647.199219 164.398438 L 538 164.398438 Z M 538 73 "/>
</clipPath>
</defs>
<g id="surface1">
<path style=" stroke:none;fill-rule:evenodd;fill:rgb(13.719177%,12.156677%,12.547302%);fill-opacity:1;" d="M 212.308594 115.914063 C 212.023438 117.136719 211.757813 118.640625 211.496094 120.371094 C 211.230469 122.121094 211.007813 123.949219 210.785156 125.839844 C 210.558594 127.710938 210.375 129.566406 210.253906 131.375 C 210.113281 133.183594 210.03125 134.75 210.03125 136.050781 L 190.972656 136.050781 C 190.972656 135.503906 190.992188 134.75 191.054688 133.816406 C 191.113281 132.878906 191.195313 131.921875 191.296875 130.925781 C 191.398438 129.929688 191.5 128.972656 191.601563 128.039063 C 191.683594 127.101563 191.765625 126.351563 191.804688 125.800781 L 191.5625 125.800781 C 190.34375 127.550781 189.0625 129.136719 187.71875 130.558594 C 186.394531 132.003906 184.953125 133.226563 183.425781 134.261719 C 181.902344 135.300781 180.234375 136.09375 178.464844 136.683594 C 176.671875 137.253906 174.703125 137.535156 172.546875 137.535156 C 169.617188 137.535156 166.992188 137.027344 164.652344 135.992188 C 162.335938 134.953125 160.359375 133.46875 158.734375 131.496094 C 157.105469 129.523438 155.867188 127.082031 155.011719 124.171875 C 154.15625 121.246094 153.730469 117.910156 153.730469 114.1875 C 153.730469 108.816406 154.625 103.691406 156.417969 98.769531 C 158.183594 93.867188 160.789063 89.554688 164.183594 85.8125 C 167.582031 82.089844 171.730469 79.101563 176.613281 76.886719 C 181.496094 74.644531 187.046875 73.546875 193.292969 73.546875 C 194.878906 73.546875 196.503906 73.628906 198.152344 73.773438 C 199.800781 73.933594 201.140625 74.117188 202.179688 74.320313 L 208.300781 45.722656 L 227.074219 45.722656 Z M 199.496094 87.480469 C 198.578125 87.257813 197.582031 87.074219 196.484375 86.953125 C 195.386719 86.832031 194.328125 86.769531 193.292969 86.769531 C 190.546875 86.769531 188.144531 87.238281 186.089844 88.152344 C 184.015625 89.046875 182.226563 90.269531 180.679688 91.753906 C 179.15625 93.238281 177.875 94.925781 176.835938 96.816406 C 175.820313 98.707031 174.984375 100.601563 174.375 102.53125 C 173.765625 104.464844 173.316406 106.335938 173.054688 108.125 C 172.808594 109.9375 172.667969 111.523438 172.667969 112.863281 C 172.667969 114.347656 172.828125 115.710938 173.15625 116.953125 C 173.460938 118.214844 173.925781 119.292969 174.558594 120.207031 C 175.167969 121.121094 175.960938 121.835938 176.9375 122.34375 C 177.914063 122.871094 179.054688 123.117188 180.355469 123.117188 C 182.550781 123.117188 184.503906 122.484375 186.234375 121.183594 C 187.960938 119.902344 189.488281 118.214844 190.808594 116.121094 C 192.152344 114.023438 193.269531 111.6875 194.1875 109.082031 C 195.101563 106.476563 195.855469 103.875 196.445313 101.25 Z M 199.496094 87.480469 "/>
<path style=" stroke:none;fill-rule:evenodd;fill:rgb(13.719177%,12.156677%,12.547302%);fill-opacity:1;" d="M 285.0625 90.753906 C 285.0625 93.910156 284.390625 96.777344 283.070313 99.402344 C 281.746094 102.023438 279.511719 104.28125 276.398438 106.195313 C 273.285156 108.105469 269.136719 109.609375 263.972656 110.6875 C 258.804688 111.785156 252.378906 112.398438 244.667969 112.519531 C 244.585938 112.742188 244.546875 112.96875 244.546875 113.148438 C 244.546875 113.3125 244.546875 113.515625 244.546875 113.699219 C 244.546875 114.941406 244.75 116.160156 245.136719 117.402344 C 245.542969 118.640625 246.214844 119.738281 247.191406 120.734375 C 248.167969 121.734375 249.449219 122.527344 251.035156 123.15625 C 252.621094 123.765625 254.613281 124.074219 256.996094 124.074219 C 258.4375 124.074219 259.984375 123.949219 261.671875 123.683594 C 263.359375 123.421875 265.089844 123.054688 266.839844 122.546875 C 268.585938 122.058594 270.316406 121.46875 272.046875 120.757813 C 273.773438 120.066406 275.382813 119.3125 276.84375 118.480469 L 273.917969 132.535156 C 272.695313 133.164063 271.273438 133.796875 269.6875 134.382813 C 268.101563 134.972656 266.390625 135.523438 264.539063 135.992188 C 262.691406 136.480469 260.714844 136.84375 258.640625 137.128906 C 256.546875 137.394531 254.410156 137.535156 252.234375 137.535156 C 247.617188 137.535156 243.671875 136.863281 240.375 135.523438 C 237.082031 134.160156 234.355469 132.351563 232.242188 130.070313 C 230.105469 127.773438 228.558594 125.109375 227.5625 122.039063 C 226.566406 118.988281 226.078125 115.734375 226.078125 112.273438 C 226.078125 107.070313 226.933594 102.125 228.660156 97.449219 C 230.390625 92.75 232.851563 88.640625 236.042969 85.101563 C 239.257813 81.5625 243.101563 78.753906 247.617188 76.679688 C 252.113281 74.585938 257.15625 73.546875 262.710938 73.546875 C 266.738281 73.546875 270.15625 74.015625 272.960938 74.972656 C 275.789063 75.925781 278.085938 77.210938 279.875 78.816406 C 281.667969 80.421875 282.988281 82.253906 283.824219 84.328125 C 284.65625 86.402344 285.0625 88.539063 285.0625 90.753906 Z M 267.125 91 C 267.125 89.535156 266.574219 88.316406 265.496094 87.339844 C 264.398438 86.363281 262.851563 85.875 260.878906 85.875 C 259.128906 85.875 257.441406 86.261719 255.835938 87.011719 C 254.230469 87.765625 252.765625 88.804688 251.421875 90.144531 C 250.097656 91.46875 248.960938 93.054688 248.003906 94.90625 C 247.050781 96.753906 246.335938 98.75 245.847656 100.886719 C 253.007813 100.964844 258.335938 100.152344 261.855469 98.445313 C 265.375 96.734375 267.125 94.253906 267.125 91 Z M 267.125 91 "/>
<path style=" stroke:none;fill-rule:evenodd;fill:rgb(13.719177%,12.156677%,12.547302%);fill-opacity:1;" d="M 332.128906 88.925781 L 317.890625 88.925781 L 313.011719 111.746094 C 312.929688 112.253906 312.828125 112.804688 312.707031 113.414063 C 312.601563 114.003906 312.480469 114.59375 312.378906 115.203125 C 312.277344 115.792969 312.195313 116.363281 312.113281 116.890625 C 312.035156 117.421875 311.992188 117.867188 311.992188 118.234375 C 311.992188 119.820313 312.398438 121 313.191406 121.753906 C 313.988281 122.507813 315.289063 122.890625 317.121094 122.890625 C 317.605469 122.890625 318.199219 122.832031 318.949219 122.710938 C 319.683594 122.585938 320.433594 122.425781 321.207031 122.21875 C 321.980469 122.039063 322.730469 121.8125 323.445313 121.609375 C 324.15625 121.386719 324.726563 121.203125 325.171875 121.042969 L 322.246094 134.972656 C 321.53125 135.257813 320.65625 135.542969 319.621094 135.808594 C 318.582031 136.09375 317.464844 136.359375 316.222656 136.582031 C 315.003906 136.824219 313.722656 137.027344 312.378906 137.191406 C 311.058594 137.332031 309.753906 137.414063 308.472656 137.414063 C 305.464844 137.414063 302.941406 137.027344 300.90625 136.253906 C 298.894531 135.484375 297.265625 134.40625 296.066406 133.042969 C 294.847656 131.679688 293.992188 130.070313 293.503906 128.242188 C 292.996094 126.410156 292.75 124.4375 292.75 122.28125 C 292.75 121.652344 292.792969 120.917969 292.875 120.085938 C 292.957031 119.25 293.058594 118.398438 293.199219 117.523438 C 293.34375 116.648438 293.503906 115.753906 293.667969 114.859375 C 293.847656 113.984375 294.011719 113.148438 294.175781 112.398438 L 299.058594 88.925781 L 289.660156 88.925781 L 292.996094 75.03125 L 301.984375 75.03125 L 305.078125 60.734375 L 324.929688 55.851563 L 320.941406 75.03125 L 335.425781 75.03125 Z M 332.128906 88.925781 "/>
<path style=" stroke:none;fill-rule:evenodd;fill:rgb(13.719177%,12.156677%,12.547302%);fill-opacity:1;" d="M 381.1875 92.382813 L 381.066406 92.382813 C 380.230469 91.9375 379.15625 91.550781 377.875 91.183594 C 376.59375 90.816406 375.371094 90.65625 374.273438 90.65625 C 371.933594 90.65625 369.820313 91.164063 367.945313 92.21875 C 366.074219 93.277344 364.429688 94.703125 363.003906 96.492188 C 361.582031 98.28125 360.382813 100.375 359.40625 102.777344 C 358.429688 105.175781 357.636719 107.71875 357.046875 110.425781 L 351.675781 136.050781 L 332.617188 136.050781 L 340.957031 97.140625 C 341.363281 95.269531 341.75 93.339844 342.117188 91.367188 C 342.503906 89.371094 342.847656 87.417969 343.195313 85.488281 C 343.539063 83.554688 343.824219 81.703125 344.089844 79.914063 C 344.351563 78.125 344.554688 76.5 344.71875 75.03125 L 363.371094 75.03125 C 363.25 76.191406 363.105469 77.371094 362.984375 78.613281 C 362.839844 79.832031 362.699219 81.011719 362.558594 82.152344 C 362.414063 83.292969 362.273438 84.308594 362.152344 85.222656 C 362.007813 86.136719 361.886719 86.851563 361.804688 87.359375 L 362.046875 87.359375 C 364.511719 82.804688 367.113281 79.34375 369.820313 77.027344 C 372.542969 74.707031 375.695313 73.546875 379.277344 73.546875 C 380.3125 73.546875 381.308594 73.648438 382.308594 73.832031 C 383.304688 74.035156 384.199219 74.199219 384.992188 74.320313 Z M 381.1875 92.382813 "/>
<path style=" stroke:none;fill-rule:evenodd;fill:rgb(13.719177%,12.156677%,12.547302%);fill-opacity:1;" d="M 442.085938 115.914063 C 441.800781 117.136719 441.535156 118.640625 441.273438 120.371094 C 441.007813 122.121094 440.785156 123.949219 440.5625 125.839844 C 440.335938 127.710938 440.152344 129.566406 440.03125 131.375 C 439.890625 133.183594 439.808594 134.75 439.808594 136.050781 L 420.75 136.050781 C 420.75 135.460938 420.769531 134.691406 420.832031 133.753906 C 420.890625 132.816406 420.953125 131.863281 421.035156 130.90625 C 421.113281 129.929688 421.21875 128.972656 421.320313 128.039063 C 421.421875 127.101563 421.503906 126.308594 421.582031 125.679688 L 421.339844 125.679688 C 420.179688 127.226563 419 128.730469 417.757813 130.152344 C 416.539063 131.578125 415.15625 132.839844 413.652344 133.9375 C 412.144531 135.035156 410.457031 135.910156 408.628906 136.5625 C 406.777344 137.210938 404.640625 137.535156 402.21875 137.535156 C 399.230469 137.535156 396.585938 137.007813 394.269531 135.929688 C 391.929688 134.851563 389.976563 133.304688 388.390625 131.292969 C 386.804688 129.257813 385.582031 126.777344 384.75 123.867188 C 383.914063 120.9375 383.507813 117.644531 383.507813 113.941406 C 383.507813 112.070313 383.710938 109.773438 384.117188 107.070313 C 384.546875 104.34375 385.296875 101.476563 386.398438 98.484375 C 387.496094 95.472656 389 92.503906 390.953125 89.535156 C 392.90625 86.585938 395.386719 83.902344 398.4375 81.523438 C 401.46875 79.140625 405.148438 77.210938 409.460938 75.746094 C 413.753906 74.28125 418.835938 73.546875 424.675781 73.546875 C 426.933594 73.546875 429.210938 73.628906 431.507813 73.8125 C 433.789063 73.996094 436.023438 74.21875 438.242188 74.523438 C 440.4375 74.828125 442.574219 75.175781 444.648438 75.5625 C 446.703125 75.96875 448.636719 76.355469 450.425781 76.761719 Z M 429.273438 87.359375 C 428.355469 87.175781 427.339844 87.011719 426.21875 86.910156 C 425.121094 86.832031 424.066406 86.769531 423.066406 86.769531 C 420.324219 86.769531 417.921875 87.238281 415.867188 88.152344 C 413.792969 89.046875 412.003906 90.246094 410.457031 91.710938 C 408.933594 93.195313 407.652344 94.863281 406.613281 96.714844 C 405.597656 98.585938 404.761719 100.480469 404.152344 102.410156 C 403.542969 104.34375 403.09375 106.214844 402.832031 108.042969 C 402.585938 109.875 402.445313 111.480469 402.445313 112.863281 C 402.445313 114.347656 402.605469 115.710938 402.890625 116.953125 C 403.199219 118.214844 403.664063 119.292969 404.296875 120.207031 C 404.925781 121.121094 405.71875 121.835938 406.652344 122.34375 C 407.589844 122.871094 408.667969 123.117188 409.910156 123.117188 C 412.167969 123.117188 414.179688 122.464844 415.949219 121.164063 C 417.71875 119.839844 419.265625 118.171875 420.585938 116.121094 C 421.929688 114.066406 423.046875 111.765625 423.941406 109.203125 C 424.816406 106.640625 425.550781 104.117188 426.097656 101.617188 Z M 429.273438 87.359375 "/>
<path style=" stroke:none;fill-rule:evenodd;fill:rgb(13.719177%,12.156677%,12.547302%);fill-opacity:1;" d="M 520.800781 89.578125 C 520.800781 90.164063 520.738281 90.960938 520.617188 91.957031 C 520.496094 92.953125 520.351563 93.988281 520.167969 95.046875 C 520.007813 96.125 519.800781 97.164063 519.621094 98.179688 C 519.417969 99.199219 519.234375 100.050781 519.070313 100.78125 L 511.628906 136.050781 L 492.730469 136.050781 L 500.074219 101.25 C 500.296875 99.988281 500.542969 98.667969 500.785156 97.324219 C 501.011719 95.964844 501.132813 94.925781 501.132813 94.214844 C 501.132813 92.320313 500.644531 90.796875 499.667969 89.65625 C 498.710938 88.539063 497.246094 87.96875 495.292969 87.96875 C 493.667969 87.96875 491.976563 88.476563 490.210938 89.472656 C 488.441406 90.492188 486.773438 91.832031 485.226563 93.5 C 483.679688 95.171875 482.316406 97.082031 481.136719 99.257813 C 479.980469 101.414063 479.144531 103.632813 478.675781 105.910156 L 472.351563 136.050781 L 453.171875 136.050781 L 462.222656 94.214844 C 462.589844 92.382813 462.933594 90.550781 463.300781 88.703125 C 463.667969 86.871094 463.96875 85.101563 464.257813 83.414063 C 464.519531 81.726563 464.785156 80.136719 464.988281 78.695313 C 465.210938 77.25 465.375 76.03125 465.496094 75.03125 L 484.085938 75.03125 C 483.984375 76.152344 483.84375 77.3125 483.699219 78.511719 C 483.558594 79.730469 483.4375 80.890625 483.292969 82.011719 C 483.152344 83.109375 483.027344 84.105469 482.90625 84.960938 C 482.785156 85.8125 482.683594 86.425781 482.601563 86.769531 L 482.84375 86.769531 C 484.230469 84.9375 485.796875 83.230469 487.542969 81.625 C 489.292969 80.015625 491.164063 78.613281 493.117188 77.414063 C 495.089844 76.234375 497.125 75.277344 499.238281 74.585938 C 501.335938 73.894531 503.449219 73.546875 505.542969 73.546875 C 510.589844 73.546875 514.394531 74.953125 516.957031 77.738281 C 519.519531 80.546875 520.800781 84.492188 520.800781 89.578125 Z M 520.800781 89.578125 "/>
<path style=" stroke:none;fill-rule:evenodd;fill:rgb(13.719177%,12.156677%,12.547302%);fill-opacity:1;" d="M 534.941406 127.503906 C 534.941406 128.597656 534.71875 129.605469 534.289063 130.523438 C 533.863281 131.421875 533.269531 132.207031 532.53125 132.855469 C 531.804688 133.507813 530.933594 134.007813 529.945313 134.351563 C 528.941406 134.691406 527.875 134.867188 526.707031 134.867188 C 525.585938 134.867188 524.550781 134.703125 523.617188 134.378906 C 522.671875 134.039063 521.859375 133.566406 521.164063 132.960938 C 520.484375 132.355469 519.9375 131.644531 519.554688 130.816406 C 519.152344 130.003906 518.960938 129.101563 518.960938 128.113281 C 518.960938 127.019531 519.183594 126.011719 519.613281 125.082031 C 520.039063 124.164063 520.632813 123.367188 521.386719 122.714844 C 522.140625 122.066406 523.011719 121.5625 524.03125 121.207031 C 525.035156 120.839844 526.128906 120.660156 527.3125 120.660156 C 528.421875 120.660156 529.441406 120.839844 530.375 121.179688 C 531.320313 121.53125 532.117188 122.007813 532.796875 122.613281 C 533.476563 123.21875 534.007813 123.941406 534.378906 124.785156 C 534.75 125.613281 534.941406 126.53125 534.941406 127.503906 Z M 534.941406 127.503906 "/>
<g clip-path="url(#clip1)" clip-rule="nonzero">
<path style=" stroke:none;fill-rule:evenodd;fill:rgb(13.719177%,12.156677%,12.547302%);fill-opacity:1;" d="M 580.730469 85.753906 C 578.941406 84.613281 576.949219 83.679688 574.710938 82.964844 C 572.492188 82.253906 570.257813 81.886719 568.039063 81.886719 C 564.296875 81.886719 561.410156 82.742188 559.375 84.449219 C 557.320313 86.160156 556.304688 88.417969 556.304688 91.242188 C 556.304688 92.382813 556.484375 93.441406 556.875 94.398438 C 557.238281 95.351563 557.808594 96.25 558.542969 97.101563 C 559.273438 97.957031 560.210938 98.789063 561.328125 99.582031 C 562.464844 100.375 563.769531 101.230469 565.230469 102.148438 C 569.6875 104.730469 572.902344 107.371094 574.855469 110.097656 C 576.824219 112.824219 577.800781 115.894531 577.800781 119.3125 C 577.800781 121.609375 577.375 123.871094 576.519531 126.066406 C 575.667969 128.28125 574.324219 130.214844 572.453125 131.902344 C 570.582031 133.589844 568.160156 134.953125 565.210938 135.992188 C 562.242188 137.027344 558.640625 137.535156 554.390625 137.535156 C 553.210938 137.535156 551.890625 137.457031 550.464844 137.292969 C 549.023438 137.152344 547.597656 136.90625 546.132813 136.582031 C 544.691406 136.277344 543.308594 135.890625 541.964844 135.421875 C 540.640625 134.972656 539.484375 134.445313 538.484375 133.855469 L 540.460938 124.558594 C 541.25 125.109375 542.230469 125.660156 543.410156 126.226563 C 544.566406 126.777344 545.847656 127.265625 547.210938 127.710938 C 548.574219 128.140625 550.019531 128.507813 551.503906 128.789063 C 552.988281 129.054688 554.472656 129.199219 555.9375 129.199219 C 559.921875 129.199219 562.894531 128.402344 564.847656 126.820313 C 566.820313 125.230469 567.796875 123.015625 567.796875 120.207031 C 567.796875 119.171875 567.652344 118.214844 567.347656 117.339844 C 567.0625 116.464844 566.535156 115.589844 565.78125 114.71875 C 565.027344 113.84375 564.03125 112.96875 562.792969 112.070313 C 561.570313 111.175781 560.003906 110.179688 558.15625 109.0625 C 554.085938 106.601563 551.097656 104.015625 549.183594 101.332031 C 547.253906 98.667969 546.296875 95.636719 546.296875 92.261719 C 546.296875 89.800781 546.742188 87.441406 547.660156 85.183594 C 548.574219 82.945313 549.9375 80.953125 551.75 79.246094 C 553.558594 77.515625 555.816406 76.132813 558.5625 75.09375 C 561.308594 74.058594 564.5 73.550781 568.160156 73.550781 C 571.03125 73.550781 573.734375 73.8125 576.296875 74.382813 C 578.859375 74.933594 581.035156 75.644531 582.824219 76.519531 Z M 647.222656 96.371094 C 647.222656 99.296875 646.914063 102.351563 646.285156 105.523438 C 645.632813 108.675781 644.660156 111.789063 643.355469 114.839844 C 642.054688 117.890625 640.40625 120.796875 638.433594 123.542969 C 636.480469 126.289063 634.164063 128.691406 631.5 130.785156 C 628.832031 132.859375 625.824219 134.507813 622.445313 135.726563 C 619.070313 136.925781 615.328125 137.535156 611.238281 137.535156 C 608.902344 137.535156 606.582031 137.3125 604.304688 136.886719 C 602.007813 136.457031 600.011719 135.929688 598.304688 135.339844 L 592.222656 164.367188 L 582.335938 164.367188 L 597.226563 93.804688 C 597.511719 92.523438 597.777344 91 598.019531 89.210938 C 598.242188 87.421875 598.445313 85.632813 598.628906 83.820313 C 598.8125 82.011719 598.953125 80.324219 599.078125 78.734375 C 599.199219 77.128906 599.261719 75.910156 599.261719 75.035156 L 609.265625 75.035156 C 609.265625 75.707031 609.226563 76.621094 609.125 77.78125 C 609.023438 78.917969 608.902344 80.121094 608.738281 81.378906 C 608.578125 82.621094 608.414063 83.839844 608.25 85.019531 C 608.109375 86.179688 607.964844 87.136719 607.84375 87.847656 L 608.085938 87.847656 C 610.894531 83.046875 614.089844 79.449219 617.605469 77.089844 C 621.144531 74.726563 625.007813 73.550781 629.179688 73.550781 C 631.945313 73.550781 634.46875 74.015625 636.683594 74.972656 C 638.902344 75.929688 640.8125 77.351563 642.378906 79.265625 C 643.945313 81.175781 645.144531 83.558594 645.980469 86.425781 C 646.8125 89.273438 647.222656 92.585938 647.222656 96.371094 Z M 637.214844 96.777344 C 637.214844 94.640625 637.03125 92.648438 636.644531 90.816406 C 636.277344 89.007813 635.648438 87.421875 634.773438 86.117188 C 633.898438 84.796875 632.78125 83.78125 631.417969 83.027344 C 630.035156 82.253906 628.367188 81.886719 626.371094 81.886719 C 624.320313 81.886719 622.367188 82.316406 620.554688 83.167969 C 618.765625 84.023438 617.078125 85.164063 615.53125 86.585938 C 613.984375 88.03125 612.5625 89.679688 611.300781 91.570313 C 610.019531 93.460938 608.902344 95.414063 607.90625 97.449219 C 606.910156 99.460938 606.074219 101.496094 605.363281 103.550781 C 604.671875 105.585938 604.140625 107.515625 603.796875 109.304688 L 600.03125 127 C 600.746094 127.304688 601.601563 127.589844 602.597656 127.855469 C 603.59375 128.121094 604.628906 128.34375 605.6875 128.546875 C 606.765625 128.75 607.863281 128.894531 608.984375 129.015625 C 610.082031 129.136719 611.117188 129.199219 612.074219 129.199219 C 614.820313 129.199219 617.339844 128.75 619.660156 127.835938 C 622 126.917969 624.074219 125.679688 625.925781 124.113281 C 627.777344 122.527344 629.402344 120.695313 630.808594 118.5625 C 632.230469 116.445313 633.410156 114.167969 634.367188 111.765625 C 635.324219 109.367188 636.035156 106.886719 636.5 104.324219 C 636.988281 101.761719 637.214844 99.238281 637.214844 96.777344 Z M 637.214844 96.777344 "/>
</g>
<path style=" stroke:none;fill-rule:evenodd;fill:rgb(2.352905%,31.762695%,64.646912%);fill-opacity:1;" d="M 26.574219 -0.0898438 L 107.421875 -0.0898438 C 163.195313 -0.0898438 160.179688 75.566406 125.71875 114.089844 L 108.953125 96.664063 L 7.789063 96.664063 L 14.480469 62.203125 L 75.796875 62.203125 L 67.71875 53.808594 L 16.109375 53.808594 L 17.566406 46.296875 L 60.492188 46.296875 L 54.542969 40.113281 L 18.769531 40.113281 L 18.179688 43.140625 L 19.882813 34.371094 L 49.015625 34.371094 L 45.617188 30.835938 L 20.570313 30.835938 L 21.394531 26.585938 L 41.527344 26.585938 L 38.125 23.050781 L 22.082031 23.050781 L 22.609375 20.320313 L 35.5 20.320313 L 32.097656 16.785156 L 23.296875 16.785156 Z M 125.710938 114.097656 C 113.996094 127.191406 98.65625 136 80.746094 136.078125 L 0.0664063 136.425781 L 6.066406 105.535156 L 4.402344 114.097656 Z M 10.277344 83.851563 L 12.761719 71.039063 L 84.296875 71.039063 L 96.625 83.851563 Z M 10.277344 83.851563 "/>
</g>
</svg>
